<svg xmlns="http://www.w3.org/2000/svg" width="96" height="72" viewBox="0 0 32 24" fill="none" shape-rendering="crispEdges" aria-hidden="true"><path d="M4 21h23v2H4z" fill="#1b2940" opacity=".1" /><path d="M4 11h10v7H4zM15 12h13v7H15z" fill="#f08c83" /><path d="M13 9h16v4H13zM4 7h9v3H4z" fill="#bc5b60" /><path d="M17 13h8v4h-8zM6 10h5v4H6z" fill="#d9edf2" /><path d="M2 13h3v6H2zM10 16h6v2h-6z" fill="#485269" /><path d="M4 19h5v4H4zM22 19h5v4h-5zM12 19h4v3h-4z" fill="#263146" /><path d="M5 20h3v2H5zM23 20h3v2h-3z" fill="#a9b6c9" /></svg>
